<svg fill="none" height="20" viewBox="0 0 20 20" width="20" xmlns="http://www.w3.org/2000/svg"><path d="m14.2679 6.8695c0 .56792-.1894 1.39135-.5303 2.34579-.336.94081-.8009 1.95901-1.3102 2.89841-.5106.9418-1.0555 1.7853-1.5456 2.3844-.2461.3009-.4646.5229-.645.6643-.1379.1082-.2149.1387-.23839.1472-.0235-.0085-.10051-.039-.23845-.1472-.18034-.1414-.39883-.3634-.64498-.6643-.49011-.5991-1.03499-1.4426-1.54559-2.3844-.5093-.9394-.97422-1.9576-1.31023-2.89841-.34088-.95444-.53025-1.77787-.53025-2.34579 0-2.35798 1.91152-4.2695 4.26949-4.2695 2.358 0 4.2695 1.91152 4.2695 4.2695z" stroke="currentColor" stroke-width="1.2"/><circle cx="10.0007" cy="6.8698" fill="currentColor" r="1.39129"/><path d="m7.56432 12.4348h-2.43475l-1.39129 5.5652h12.52162l-1.3913-5.5652h-2.4348" stroke="currentColor" stroke-linecap="round" stroke-linejoin="round" stroke-width="1.2"/></svg>
