<svg fill="currentColor" height="20" viewBox="0 0 20 20" width="20" xmlns="http://www.w3.org/2000/svg"><g fill="currentColor"><path d="m12.4867 5.92114h-8.66717c-.91875 0-1.66719.74844-1.66719 1.66719v6.13277c0 .9188.74844 1.6672 1.66719 1.6672h.46719v.6625c0 .4063.24219.7688.61719.9235.125.0515.25468.0765.38437.0765.25938 0 .51406-.1015.70625-.2937l1.36875-1.3688h5.12342c.9188 0 1.6672-.7484 1.6672-1.6672v-6.13277c0-.91875-.7484-1.66719-1.6672-1.66719zm.3328 7.79996c0 .1844-.15.3329-.3328.3329h-5.39998c-.04375 0-.0875.0046-.13125.0125-.02031.0046-.03906.0109-.05781.0171-.02188.0063-.04532.011-.06719.0204-.02344.0093-.04375.0218-.06563.0343-.01718.0094-.03437.0157-.05.0266-.0375.025-.07187.0531-.10156.0828l-.99531.9953v-.5234c0-.3688-.29844-.6672-.66719-.6672h-1.13281c-.18438 0-.33281-.15-.33281-.3328v-6.13127c0-.18437.15-.33281.33281-.33281h8.66873c.1844 0 .3328.15.3328.33281z"/><path d="m15.1555 2.94922h-10.00003c-.91875 0-1.66719.74844-1.66719 1.66719v.33281c0 .36875.29844.66719.66719.66719s.66719-.29844.66719-.66719v-.33281c0-.18438.15-.33282.33281-.33282h10.00003c.1843 0 .3328.15.3328.33282v6.77499c0 .1844-.15.3328-.3328.3328-.3688 0-.6672.2985-.6672.6672 0 .3688.2984.6672.6672.6672.9187 0 1.6672-.7484 1.6672-1.6672v-6.77656c-.0016-.91875-.7485-1.66562-1.6672-1.66562z"/><path d="m11.3562 8.63208h-6.39995c-.36875 0-.66719.29844-.66719.66719s.29844.66719.66719.66719h6.39995c.3688 0 .6672-.29844.6672-.66719-.0015-.36875-.3-.66719-.6672-.66719zm-1.59995 2.71092h-4.8c-.36875 0-.66719.2985-.66719.6672 0 .3688.29844.6672.66719.6672h4.8c.36875 0 .66715-.2984.66715-.6672 0-.3687-.3-.6672-.66715-.6672z"/></g></svg>
