<svg width="20" height="20" viewBox="0 0 20 20" fill="none" xmlns="http://www.w3.org/2000/svg">
<path d="M12.4867 5.92114H3.81953C2.90078 5.92114 2.15234 6.66958 2.15234 7.58833V13.7211C2.15234 14.6399 2.90078 15.3883 3.81953 15.3883H4.28672V16.0508C4.28672 16.4571 4.52891 16.8196 4.90391 16.9743C5.02891 17.0258 5.15859 17.0508 5.28828 17.0508C5.54766 17.0508 5.80234 16.9493 5.99453 16.7571L7.36328 15.3883H12.4867C13.4055 15.3883 14.1539 14.6399 14.1539 13.7211V7.58833C14.1539 6.66958 13.4055 5.92114 12.4867 5.92114ZM12.8195 13.7211C12.8195 13.9055 12.6695 14.054 12.4867 14.054H7.08672C7.04297 14.054 6.99922 14.0586 6.95547 14.0665C6.93516 14.0711 6.91641 14.0774 6.89766 14.0836C6.87578 14.0899 6.85234 14.0946 6.83047 14.104C6.80703 14.1133 6.78672 14.1258 6.76484 14.1383C6.74766 14.1477 6.73047 14.154 6.71484 14.1649C6.67734 14.1899 6.64297 14.218 6.61328 14.2477L5.61797 15.243V14.7196C5.61797 14.3508 5.31953 14.0524 4.95078 14.0524H3.81797C3.63359 14.0524 3.48516 13.9024 3.48516 13.7196V7.58833C3.48516 7.40396 3.63516 7.25552 3.81797 7.25552H12.4867C12.6711 7.25552 12.8195 7.40552 12.8195 7.58833V13.7211Z" />
<path d="M15.1555 2.94922H5.15547C4.23672 2.94922 3.48828 3.69766 3.48828 4.61641V4.94922C3.48828 5.31797 3.78672 5.61641 4.15547 5.61641C4.52422 5.61641 4.82266 5.31797 4.82266 4.94922V4.61641C4.82266 4.43203 4.97266 4.28359 5.15547 4.28359H15.1555C15.3398 4.28359 15.4883 4.43359 15.4883 4.61641V11.3914C15.4883 11.5758 15.3383 11.7242 15.1555 11.7242C14.7867 11.7242 14.4883 12.0227 14.4883 12.3914C14.4883 12.7602 14.7867 13.0586 15.1555 13.0586C16.0742 13.0586 16.8227 12.3102 16.8227 11.3914V4.61484C16.8211 3.69609 16.0742 2.94922 15.1555 2.94922V2.94922Z" />
<path d="M11.3562 8.63208H4.95625C4.5875 8.63208 4.28906 8.93052 4.28906 9.29927C4.28906 9.66802 4.5875 9.96646 4.95625 9.96646H11.3562C11.725 9.96646 12.0234 9.66802 12.0234 9.29927C12.0219 8.93052 11.7234 8.63208 11.3562 8.63208ZM9.75625 11.343H4.95625C4.5875 11.343 4.28906 11.6415 4.28906 12.0102C4.28906 12.379 4.5875 12.6774 4.95625 12.6774H9.75625C10.125 12.6774 10.4234 12.379 10.4234 12.0102C10.4234 11.6415 10.1234 11.343 9.75625 11.343V11.343Z" />
</svg>
