<svg fill="none" height="20" viewBox="0 0 20 20" width="20" xmlns="http://www.w3.org/2000/svg"><path d="m11.6215 14.6969.3941-.4251-.4113-.4085-2.78668-2.7673-.42562-.4226-.42278.4255-4.89721 4.9286-.01214.0123-.01143.0129c-.02031.0229-.04678.0405-.07696.0505-.02563.0085-.0529.0111-.0797.0078-.02267-.008-.043-.0208-.05957-.0372-.01971-.0196-.0334-.0436-.04013-.0695l-.00047-.0018c-.00597-.0226-.00543-.0463.00157-.0687.00702-.0224.0204-.0429.0392-.059l.01845-.0158.01712-.0172 4.89722-4.9287.42552-.4283-.43087-.4228-2.81961-2.76731-.41753-.40977-.4202.40703c-.0123.01191-.02708.02151-.04359.02803-.01653.00653-.03432.00979-.05233.00951-.018-.00029-.03567-.00411-.05194-.01114-.01609-.00695-.0304-.01685-.0422-.02895-.02781-.02902-.04294-.06658-.04356-.10503-.00057-.03565.01136-.07087.03446-.09957l2.2611-2.26166.00001-.00001 2.28718-2.28763c.01188-.01101.02593-.01991.04153-.02608.01652-.00652.03432-.00978.05232-.0095.01801.00028.03567.00411.05194.01113.01626.00703.03069.01706.04256.02932l.01055.01089.01109.01034c.01079.01007.0192.02195.02493.03482.00572.01286.00873.02657.00895.04034.00022.01378-.00233.02755-.00762.04055-.0053.01301-.01328.02511-.0237.03548l-.42944.42733.43147.42528 6.66151 6.5661.4043.3986.4203-.3817c.0277-.0252.065-.0394.1041-.0386.0391.0009.0756.0167.102.043.0263.0261.0407.0605.0415.0957.0008.0328-.0103.0653-.0321.0915l-4.5506 4.5516c-.0118.011-.0259.0199-.0415.0261-.0165.0065-.0343.0098-.0523.0095s-.0357-.0041-.0519-.0111c-.0163-.0071-.0307-.0171-.0426-.0293v-.0001l-.0043-.0043c-.025-.0253-.0386-.0584-.0391-.0922-.0006-.0338.0119-.0673.036-.0933zm-9.40986 1.4588h-.00015z" stroke="currentColor" stroke-width="1.2"/><path d="m7.98438 5.76416 1.43885 1.43885.71947.71943" stroke="currentColor" stroke-linecap="round" stroke-width="1.2"/><path d="m7.833 16.8588c.09377-.0937.22095-.1464.35355-.1464h6.67005c.1326 0 .2598.0527.3535.1464l.2881.2881c.3149.315.0919.8535-.3536.8535h-7.24609c-.44545 0-.66853-.5385-.35355-.8535z" fill="currentColor"/></svg>
