<svg fill="currentColor" height="20" viewBox="0 0 20 20" width="20" xmlns="http://www.w3.org/2000/svg"><path d="m2.52344 17.6489h14.56986" stroke="#71bfeb" stroke-linecap="round" stroke-width="1.2"/><path clip-rule="evenodd" d="m14.0275 5.22381c-.6811-1.78618-2.391-2.87274-4.46536-2.87274-2.64593 0-4.79067 2.05484-4.79067 4.58909-.00074.61488.12841 1.22391.38011 1.79247.16695.36728.35665.72524.56815 1.07209l.05816.09626c.06746.11292.24793.40462.41526.67502l.00005.0001.00019.0003.00051.0008c.07949.1285.15598.2521.21592.3494l1.11227-.6856c-.06512-.1056-.14435-.2336-.22421-.36259l-.00003-.00005-.0003-.00049c-.14482-.23391-.29169-.47114-.36037-.58466l-.06561-.10947c-.2232-.37435-.38214-.67005-.50389-.94563-.17991-.40643-.2746-.84496-.2746-1.29795 0-1.83526 1.55293-3.32322 3.46906-3.32322 1.49006 0 2.67776.72605 3.18766 1.95291.0984.23063.1983.46069.2997.69019.0179.04081.0448.07767.079.10819.0341.03052.0748.05401.1194.06896s.092.02102.1393.01781c.0473-.0032.0933-.01561.135-.03641l.5411-.26865c.0702-.03493.1248-.09173.1544-.16043.0295-.0687.0321-.14489.0073-.21518-.0974-.27557-.1637-.45929-.1975-.55052zm-3.8845 3.40161-1.13148.69746-.23126-.22848c-.0968-.09417-.19019-.19133-.28001-.2913-.31924-.36114-.50118-.71284-.56138-1.16395-.11363-.86383.39229-1.65909 1.18499-1.95983.43084-.16358.94084-.20258 1.40484-.05159h.0006c.4931.16107.9618.67824 1.1871 1.19855l.0162.03712c.0325.07094.0358.15049.0094.22356-.0265.07307-.0808.13457-.1528.17281l-.5039.26739c-.04.02127-.0843.03471-.1301.03948-.0458.00478-.0921.00081-.1362-.01168s-.085-.03323-.1201-.06095c-.0352-.02772-.0639-.06182-.0843-.10023-.0091-.01762-.019-.03483-.0298-.05159-.0124-.01849-.0261-.04405-.0423-.07415v-.00001c-.0703-.13074-.1865-.34714-.4399-.44175-.13803-.05159-.33349-.0302-.49176.02957-.23876.0906-.3977.34101-.3605.62413.02367.17805.08792.30766.23943.48256l.01826.02139c.04937.05537.10551.11451.18397.19253l.3328.32842c.0405.04069.0798.08079.1182.12054zm-2.06215 5.92498-.37883.2335c-.34249.2111-.79129.1046-1.00241-.2379l-1.31423-2.132c-.21112-.3425-.10462-.7913.23788-1.0024l8.67834-5.34952c.3425-.21112.7913-.10462 1.0024.23787l1.3142 2.13204c.2112.34249.1047.79129-.2378 1.00241l-7.17613 4.4235c.37571.8615.90823 1.1888 1.86953 1.0323.7765-.1264 1.1688-.5738 1.229-1.503.002-.0302 0-.0888-.0068-.1762-.0071-.0902.0209-.1798.0789-.2525.058-.0726.1421-.1234.237-.1433l.5072-.1057c.056-.0116.114-.0121.1702-.0014s.1093.0324.1558.0636c.0466.0313.0855.0713.1141.1175.0287.0462.0465.0976.0523.1507.0149.1333.0203.2428.0149.3277-.0818 1.5484-.8739 2.533-2.3314 2.7702-1.0409.1699-1.88978-.0597-2.52015-.6405-.28407-.2616-.50849-.5748-.694-.9469zm6.36515-6.86577-7.43806 4.58497.54969.8918 7.43807-4.58502zm-10.40888 5.11357c.12696-.2564.48637-.2731.63649-.0295l1.38906 2.2534c.15012.2435-.02624.5572-.31233.5554l-2.49727-.0155c-.26917-.0017-.44361-.2846-.32416-.5259z" fill="currentColor"/></svg>
