<svg fill="none" height="20" viewBox="0 0 20 20" width="20" xmlns="http://www.w3.org/2000/svg"><path d="m10.0611 2.19287c2.3319 0 4.254 1.22572 5.0196 3.24066.038.10291.1126.31015.222.62102.028.0793.0251.16525-.0082.24274-.0332.0775-.0946.14157-.1735.18097l-.6082.30306c-.047.02347-.0987.03746-.1518.04108-.0532.00362-.1065-.00323-.1566-.02009s-.0959-.04337-.1343-.0778c-.0384-.03442-.0687-.076-.0888-.12204-.114-.25889-.2262-.51842-.3368-.77859-.5733-1.38398-1.9084-2.20302-3.5834-2.20302-2.15397 0-3.89966 1.67853-3.89966 3.74883 0 .51101.10645 1.0057.30869 1.46419.13686.31086.31554.64444.56644 1.06673l.07375.12349c.14978.2484.6303 1.022.78313 1.2747l.01748.0284c.71394 1.1824 1.1785 2.1228 1.50847 3.1761l.01977.0638c.43566 1.4216 1.03933 1.9802 2.32123 1.7708.8729-.1426 1.3138-.6473 1.3815-1.6955.0023-.0341 0-.1001-.0076-.1988-.0079-.1017.0236-.2028.0887-.2847.0652-.082.1597-.1393.2664-.1617l.5702-.1192c.0629-.0132.1281-.0137.1913-.0016s.1229.0365.1752.0717.096.0804.1283.1325c.0322.0522.0522.1101.0587.17.0168.1505.0228.2739.0168.3698-.092 1.7466-.9824 2.8574-2.6209 3.1249-1.1701.1917-2.12428-.0674-2.8329-.7225-.53222-.4918-.87816-1.1455-1.1458-1.9986l-.01596-.0525c-.28588-.9312-.69721-1.7765-1.34804-2.8603l-.09885-.1632c-.19007-.3109-.63866-1.0341-.76031-1.2385l-.06539-.1086c-.23775-.3912-.45099-.79506-.63867-1.20937-.28294-.64138-.42813-1.32841-.4273-2.02204 0-2.85882 2.41097-5.17682 5.38532-5.17682zm1.0873 3.69631c.5542.18169 1.0811.7651 1.3343 1.35205l.0183.04187c.0365.08002.0402.16977.0105.25219-.0297.08243-.0908.1518-.1717.19495l-.5665.30163c-.0449.02399-.0947.03915-.1462.04454-.0514.00539-.1036.00091-.1531-.01318-.0496-.01409-.0955-.03749-.135-.06876-.0396-.03126-.0718-.06974-.0948-.11306-.0102-.01988-.0214-.0393-.0335-.0582-.0745-.11143-.1916-.45068-.5421-.58198-.1551-.0582-.3748-.03407-.5527.03336-.26844.1022-.44711.38467-.40529.70405.02661.20086.09884.34707.26915.54437l.02054.02413c.0555.06246.1186.12918.2068.21718l.3741.37049c.3117.31441.5634.59759.8188.93689.2479.3293.4547.7615.6288 1.2995l.0639.2072c.0169.0576.0213.1178.0129.177-.0084.0591-.0295.1161-.062.1676-.0324.0514-.0757.0962-.1271.1318-.0514.0355-.1099.0611-.172.0751l-.4897.1107c-.1155.026-.237.0134-.3437-.0354-.1066-.0489-.1916-.131-.2402-.2322l-.0251-.0645c-.1384-.4543-.2912-.7893-.4501-1.0008-.1948-.2585-.40822-.5044-.63868-.736l-.10568-.105-.26915-.26687c-.10882-.10623-.2138-.21583-.31478-.32861-.35887-.40739-.56339-.80413-.63106-1.31301-.12773-.97447.44098-1.87158 1.33208-2.21083.48427-.18453 1.05757-.22854 1.57917-.0582z" fill="currentColor"/></svg>
