<svg fill="none" height="20" viewBox="0 0 20 20" width="20" xmlns="http://www.w3.org/2000/svg"><path clip-rule="evenodd" d="m6.9516 13.4106v-4.30398h6.7719v1.68068c-.604.206-1.1464.5452-1.5922.9826h-4.062v.6068h3.5497c-.2195.3159-.3969.6632-.5242 1.0339zm3.9887.5843h-5.36938v1.0676h5.30548c-.0061-.093-.0092-.1867-.0092-.2813 0-.2687.0251-.5315.0731-.7863zm-2.871-3.8544v.6405h4.5365v-.6405zm-2.27922-3.21396v-1.0788h3.98863v-.91024h1.11769v.91024h3.9886v1.0788h-2.9914c.8108.6293 1.9614 1.13499 3.4736 1.51706l-.4931 1.05633c-1.83-.64054-3.1559-1.47211-3.9777-2.49473v1.77553h-1.11769v-1.77553c-.86566 1.00014-2.16964 1.83172-3.91193 2.49473l-.62459-1.03385c1.556-.42703 2.73945-.93271 3.56128-1.53954z" fill="currentColor" fill-rule="evenodd"/><circle cx="15.0859" cy="14.7812" r="3.61875" stroke="currentColor" stroke-width="1.2"/><path d="m14.8047 13.375v1.1875c0 .2761.2238.5.5.5h1.1875" stroke="currentColor" stroke-linecap="round" stroke-width="1.2"/><path clip-rule="evenodd" d="m11.9673 17.6224c-.5357.1163-1.092.1776-1.6626.1776-4.30783 0-7.80001-3.4922-7.80001-7.8 0-4.30782 3.49218-7.8 7.80001-7.8 4.3078 0 7.8 3.49218 7.8 7.8 0 .5706-.0613 1.1269-.1776 1.6626.3717.3389.6826.7433.9145 1.195.3004-.8978.4631-1.8587.4631-2.8576 0-4.97056-4.0294-9-9-9-4.97058 0-9.00001 4.02944-9.00001 9 0 4.9706 4.02943 9 9.00001 9 .9989 0 1.9597-.1627 2.8575-.4631-.4516-.2318-.856-.5428-1.1949-.9145z" fill="currentColor" fill-rule="evenodd"/></svg>
