<svg fill="none" height="20" viewBox="0 0 20 20" width="20" xmlns="http://www.w3.org/2000/svg"><g stroke="currentColor"><path d="m14.197 14.5046c-.5381 0-.9743-.4362-.9743-.9743v-1.8877c0-.5523.4477-1 1-1h2.3903c.5523 0 1 .4477 1 1v2.0084c0 .4714-.3822.8536-.8537.8536" stroke-linecap="square"/><path d="m11.7526 13.2978c-.4955 0-.8971.4016-.8971.8971v2.4477c0 .5523.4477 1 1 1h2.8275c.5523 0 1-.4477 1-1v-2.4061c0-.5185-.4202-.9387-.9387-.9387" stroke-linecap="square"/><g stroke-linecap="round" stroke-linejoin="round" stroke-width="1.2"><path d="m9.85339 10.1977-7.46667-3.73337 7.46667-4.10666 7.46671 4.10666z"/><path d="m2.38672 10.1978 6.34667 3.36"/><path d="m2.38672 13.9309 5.97333 2.9867"/></g></g></svg>
