<svg fill="none" height="20" viewBox="0 0 20 20" width="20" xmlns="http://www.w3.org/2000/svg"><circle cx="9.99764" cy="10.0001" r="8.16327" stroke="currentColor" stroke-width="1.2"/><path d="m5.87646 5.19512-.68002.66805c.74184.61504 1.30852 1.17705 1.71035 1.70725l.70062-.72107c-.47395-.55141-1.05094-1.10282-1.73095-1.65423zm5.89344 9.50118h2.3595l.237-.9968c-.2782.0213-.6801.0425-1.1952.0531-.5255.0106-1.0407.0212-1.5352.0212-.7934 0-1.4734-.0106-2.05036-.0212-.59759-.0212-1.04063-.1167-1.33943-.2651-.25758-.1379-.50486-.35-.73153-.6363-.05152-.0636-.10303-.106-.14425-.1484v-4.01896h-2.30793v.93316h1.39094v3.0009c-.41213.2121-.87578.7529-1.39094 1.6118l.72123.6893c.52547-.9544.89638-1.4315 1.10245-1.4315.12364 0 .24728.0848.38122.2651.3091.3605.65941.615 1.07154.7422.42243.1061.9582.1697 1.61761.1803.64915.0106 1.25705.0212 1.81335.0212zm-3.75036-8.5044v.90134h2.35946v.84832h-1.95763v.88014h1.95763v.86953h-2.44189v.90137h2.44189v2.757h.9479v-2.757h1.6897c-.0206.4878-.0515.7953-.103.9331-.0824.1909-.2988.2969-.6388.3075-.1752 0-.3812-.0212-.6285-.053l.2782.8589c.1648.0213.3194.0425.4636.0425.6697-.0106 1.1025-.2121 1.2879-.6151.1649-.3287.2576-1.124.2885-2.37527h-2.6376v-.86953h2.1843v-.88014h-2.1843v-.84832h2.4522v-.90134h-2.4522v-1.12403h-.9479v1.12403z" fill="currentColor"/></svg>
