<svg fill="none" height="20" viewBox="0 0 20 20" width="20" xmlns="http://www.w3.org/2000/svg"><path clip-rule="evenodd" d="m7.1458 4.77762c.18044 0 .34614-.0996.43079-.25895l.57853-1.08899c.08465-.15935.25035-.25895.43078-.25895h2.8282c.1804 0 .3461.0996.4308.25895l.5785 1.08899c.0847.15935.2504.25895.4308.25895h3.5733c.2219 0 .4018.17986.4018.40172s-.1799.40172-.4018.40172h-.8602c-.226 0-.4186.15444-.4727.36729-.0063.02469-.0107.05016-.013.07628l-.9436 10.36107c-.0229.2512-.2336.4436-.4858.4436h-7.30436c-.25227 0-.46292-.1924-.4858-.4436l-.9436-10.36108c-.00237-.02611-.00678-.05158-.01305-.07627-.05406-.21285-.24669-.36729-.47274-.36729h-.8602c-.22186 0-.40172-.17986-.40172-.40172s.17986-.40172.40172-.40172zm1.4401-2.77762h2.8282c.6135 0 1.1769.33865 1.4647.88043l.3859.72646h3.1628c.8685 0 1.5725.70401 1.5725 1.57245s-.704 1.57245-1.5725 1.57245h-.2366l-.887 9.74011c-.0778.8542-.794 1.5081-1.6517 1.5081h-7.30436c-.8577 0-1.57391-.654-1.6517-1.5081l-.88705-9.74011h-.23664c-.86844 0-1.57245-.70401-1.57245-1.57245s.70401-1.57245 1.57245-1.57245h3.16284l.38593-.72646c.28782-.54178.8512-.88043 1.46468-.88043z"  "/><g stroke="#71bfeb" stroke-linecap="round" stroke-width="1.2"><path d="m8.69531 8v4"/><path d="m11.3047 8v4"/></g></svg>
