<svg fill="none" height="20" viewBox="0 0 20 20" width="20" xmlns="http://www.w3.org/2000/svg"><path d="m4.81641 10.3919v1.1194h1.89655v2.4004c0 .2239-.10803.4105-.30009.5597l.43213 1.0572c.96028-.4228 1.88455-.9203 2.7488-1.4676l-.28808-1.2064c-.52816.3482-1.0323.6591-1.48844.9328v-3.3955zm1.83653-2.43772-.78022.73382c.72021.398 1.40441.85818 2.02859 1.4054l.6962-.8084c-.60017-.52238-1.24836-.95769-1.94457-1.33082zm3.79316.8955v4.24122h1.0923v-4.24122zm2.5327 6.64162c.9123 0 1.3804-.5099 1.3804-1.5174v-5.75853h-1.1643v5.47253c0 .4726-.2041.7214-.6122.7214-.3841 0-.7923-.0249-1.2124-.0747l.2401 1.1567zm-7.80229-11.01962v3.27107h9.31469v-3.27107zm8.21039 2.30094h-1.6445v-1.33081h1.6445zm-2.7008 0h-1.70448v-1.33081h1.70448zm-2.76078 0h-1.64449v-1.33081h1.64449z" fill="currentColor"/><g stroke="currentColor" stroke-linecap="round" stroke-linejoin="round"><path d="m2.34766 2v15.3044h16.00004"/><path d="m17.6523 18v-15.3044h-16.00001"/></g></svg>
