<?xml version="1.0" encoding="UTF-8"?>
<svg width="12px" height="14px" viewBox="0 0 12 14" version="1.1" xmlns="http://www.w3.org/2000/svg" xmlns:xlink="http://www.w3.org/1999/xlink">
    <!-- Generator: Sketch 63.1 (92452) - https://sketch.com -->
    <title>编组 21</title>
    <desc>Created with Sketch.</desc>
    <g id="页面-1" stroke="none" stroke-width="1" fill="none" fill-rule="evenodd">
        <g id="文书制作页面备份" transform="translate(-607.000000, -202.000000)">
            <g id="编组-21" transform="translate(607.000000, 202.000000)">
                <path d="M2.01206897,11.3692759 C1.98413793,11.3692759 1.95672414,11.3587759 1.93551724,11.3376724 C1.89362069,11.2954655 1.89362069,11.2272931 1.93551724,11.1852414 L6.31965517,6.80094828 L1.93551724,2.41644828 C1.89362069,2.37439655 1.89362069,2.30612069 1.93551724,2.26406897 C1.95672414,2.24301724 1.98413793,2.23246552 2.01155172,2.23246552 C2.03948276,2.23246552 2.06689655,2.24301724 2.08810345,2.26406897 L6.54827586,6.72465517 C6.59068966,6.76681034 6.59068966,6.83508621 6.54827586,6.87713793 L2.08810345,11.3376724 C2.06689655,11.3587759 2.03948276,11.3692759 2.01206897,11.3692759" id="Fill-64" fill="#0B5899"></path>
                <polyline id="Fill-65" fill="#5D9FD7" points="9.00827586 9.99051724 8.22931034 9.99051724 11.4186207 6.80094828 8.22931034 3.61137931 9.00827586 3.61137931 11.9824138 6.80094828 9.00827586 9.99051724"></polyline>
                <polyline id="Fill-66" fill="#0B5899" points="1.91637931 8.36384483 1.33086207 8.36384483 2.89344828 6.80094828 1.33086207 5.23789655 1.91637931 5.23789655 2.385 5.70687931 2.62862069 5.70687931 3.72310345 6.80094828 2.62862069 7.89491379 2.385 7.89491379 1.91637931 8.36384483"></polyline>
                <polyline id="Fill-67" fill="#0B5899" points="6.96982759 11.2502586 6.48051724 11.2502586 10.9298276 6.80094828 6.48051724 2.35158621 6.96982759 2.35158621 6.89793103 2.27963793 8.22931034 3.61137931 8.03017241 3.61137931 11.2194828 6.80094828 8.03017241 9.99051724 8.22931034 9.99051724 6.96982759 11.2502586"></polyline>
                <polyline id="Fill-68" fill="#0B5899" points="8.22931034 9.99051724 8.03017241 9.99051724 11.2194828 6.80094828 8.03017241 3.61137931 8.22931034 3.61137931 11.4186207 6.80094828 8.22931034 9.99051724"></polyline>
                <polyline id="Fill-69" fill="#5D9FD7" points="1.37586207 11.0974138 -5.88035368e-15 11.0974138 4.29672414 6.80094828 -5.88035368e-15 2.50443103 1.37586207 2.50443103 5.67206897 6.80094828 1.37586207 11.0974138"></polyline>
                <polyline id="Fill-70" fill="#0B5899" points="6.62948276 11.5902931 2.41293103 11.5902931 2.75327586 11.2502586 6.96982759 11.2502586 6.62948276 11.5902931"></polyline>
                <polyline id="Fill-71" fill="#0B5899" points="6.48051724 2.35158621 2.75327586 2.35158621 2.41293103 2.01155172 6.62948276 2.01155172 6.89793103 2.27963793 6.40862069 2.27963793 6.48051724 2.35158621"></polyline>
                <polyline id="Fill-72" fill="#0B5899" points="6.96982759 2.37963793 6.48051724 2.37963793 6.40862069 2.27963793 6.89793103 2.27963793 6.96982759 2.37963793"></polyline>
                <polyline id="Fill-73" fill="#0B5899" points="1.58224138 13.6018448 0.289137931 13.6018448 0.289137931 12.7234655 1.29982759 11.712931 1.29982759 12.5911034 2.59293103 12.5911034 1.58224138 13.6018448"></polyline>
                <polyline id="Fill-74" fill="#0B5899" points="1.29982759 1.88886207 0.289137931 0.87837931 0.289137931 0 2.46155172 0 1.58224138 0 2.59293103 1.01074138 1.29982759 1.01074138 1.29982759 1.88886207"></polyline>
                <polyline id="Fill-75" fill="#5D9FD7" points="5.70724138 11.0376724 4.1462069 11.0376724 8.38293103 6.80094828 4.1462069 2.56412069 5.70724138 2.56412069 9.94396552 6.80094828 5.70724138 11.0376724"></polyline>
                <polyline id="Fill-76" fill="#0B5899" points="3.14327586 13.6018448 1.58224138 13.6018448 2.46155172 13.6018448 3.47224138 12.5911034 2.59293103 12.5911034 3.38068966 11.8028793 4.94224138 11.8028793 3.14327586 13.6018448"></polyline>
                <polyline id="Fill-77" fill="#0B5899" points="2.46155172 13.6018448 1.58224138 13.6018448 2.59293103 12.5911034 3.47224138 12.5911034 2.46155172 13.6018448"></polyline>
                <polyline id="Fill-78" fill="#0B5899" points="4.94224138 1.79891379 3.38068966 1.79891379 2.59293103 1.01074138 3.47224138 1.01074138 2.46155172 1.17607074e-14 3.14327586 1.17607074e-14 4.94224138 1.79891379"></polyline>
                <polyline id="Fill-79" fill="#0B5899" points="3.47224138 1.01074138 2.59293103 1.01074138 1.58224138 5.88035368e-15 2.46155172 5.88035368e-15 3.47224138 1.01074138"></polyline>
            </g>
        </g>
    </g>
</svg>