<svg fill="none" height="20" viewBox="0 0 20 20" width="20" xmlns="http://www.w3.org/2000/svg"><path d="m5.69972 4.66675-.72806.76439c.803.62541 1.42399 1.20449 1.87367 1.74883l.72805-.78756c-.51392-.57908-1.1349-1.14658-1.87366-1.72566zm-.29979 2.77959-.72805.76439c.76017.62541 1.34904 1.2045 1.7666 1.74883l.72805-.78755c-.4818-.57908-1.07067-1.14658-1.7666-1.72567zm1.11349 3.19656c-.4818 1.3435-1.04925 2.6638-1.70236 3.9609l1.01714.4864c.58886-1.2624 1.1242-2.6058 1.606-4.042zm2.15204-.0695c.29979.996.81371 1.8531 1.53104 2.5943-.77086.4517-1.69164.8223-2.77301 1.1234l.50321 1.0076c1.17774-.3822 2.2056-.857 3.0728-1.4361.8351.6254 1.8951 1.1118 3.1692 1.4708l.5032-.9844c-1.0921-.2664-2.0343-.6486-2.8051-1.1582.8458-.7412 1.4668-1.633 1.8522-2.6637v-.99606h-5.77088v1.04236zm2.38764 1.992c-.621-.5559-1.08142-1.2276-1.40262-1.992h2.94432c-.3319.7528-.8458 1.413-1.5417 1.992zm-2.15209-7.63227v1.64459c0 .81072-.4818 1.42454-1.42399 1.86465l.67452.84546c1.16703-.67174 1.7559-1.60985 1.7559-2.82593v-.49801h1.94866v1.69092c0 .76439.364 1.14659 1.092 1.14659h1.4668v-1.04235h-1.1884c-.2462 0-.364-.1274-.364-.35903v-2.46689z" fill="currentColor"/><g stroke="currentColor" stroke-linecap="round" stroke-linejoin="round" stroke-width="1.2"><path d="m2.66797 2v14.6667h15.33333"/><path d="m17.332 17.3335v-14.66672h-15.33335"/></g></svg>
