<svg fill="none" height="20" viewBox="0 0 20 20" width="20" xmlns="http://www.w3.org/2000/svg"><rect height="14.0406" rx="1.4" stroke="#71bfeb" stroke-width="1.2" width="15.6362" x="2.18203" y="2.97988"/><path d="m7.3058 6.15419h7.4856v-.7631h-7.08588c.12112-.27859.23014-.56929.32704-.86l-.86-.14535c-.44817 1.35662-1.29605 2.49521-2.54365 3.43999l.52084.67831c.53296-.39972.99324-.83577 1.40507-1.30816v3.62172h1.55042c-.65409.8721-1.67155 1.5867-3.0645 2.1439l.44816.7389c.62986-.2907 1.19916-.6178 1.69577-.9569.65409.5693 1.39296 1.0538 2.21662 1.4535-1.2476.3634-2.74957.5814-4.50591.6541l.35127.7631c2.03493-.1212 3.75492-.4361 5.18425-.969 1.3808.5329 2.9676.8357 4.736.9205l.2059-.7994c-1.4293-.0485-2.7374-.2423-3.9002-.5814.9932-.5088 1.7926-1.1386 2.3983-1.9138v-.6299h-5.42651c.21803-.2665.42394-.5329.60563-.8236h4.79658v-3.82764h-7.12221c.20592-.26648.39972-.54507.58141-.83577zm3.1372 7.69151c-.98115-.3876-1.85326-.8842-2.62847-1.4898h4.97827c-.5935.5935-1.3808 1.0901-2.3498 1.4898zm2.5557-3.7307h-5.58389v-.89631h5.58389zm-5.58389-1.5504v-.88422h5.58389v.88422z" fill="#999999"/></svg>
